<?xml version="1.0" encoding="UTF-8"?>
<svg id="Layer_2" data-name="Layer 2" xmlns="http://www.w3.org/2000/svg" viewBox="0 0 495.56 495.59">
  <defs>
    <style>
      .cls-1 {
        fill: #231f20;
      }
    </style>
  </defs>
  <g id="Layer_1-2" data-name="Layer 1">
    <g>
      <path class="cls-1" d="M493.08,212.75c-1.29-9.02-9.65-15.29-18.67-14-9.02,1.29-15.29,9.65-14,18.67,3.59,25.13,2.68,50.58-2.73,75.64-12.09,56.06-45.29,104.06-93.48,135.16-48.19,31.09-105.61,41.55-161.67,29.47-56.06-12.09-104.06-45.29-135.16-93.48-31.09-48.19-41.56-105.61-29.47-161.67,12.09-56.06,45.29-104.06,93.48-135.16,48.19-31.09,105.61-41.56,161.67-29.47,23.78,5.13,46.26,14.1,66.81,26.67,7.77,4.75,17.93,2.31,22.69-5.47,4.75-7.77,2.31-17.93-5.47-22.69-23.72-14.51-49.65-24.86-77.07-30.78-64.68-13.95-130.92-1.88-186.52,34S19.6,130.9,5.65,195.58c-13.95,64.68-1.87,130.92,34,186.52s91.25,93.9,155.93,107.85c17.54,3.78,35.19,5.65,52.72,5.65,47.1,0,93.28-13.5,133.8-39.65,55.6-35.87,93.9-91.25,107.85-155.93,6.23-28.89,7.29-58.25,3.14-87.27Z"/>
      <path class="cls-1" d="M146.16,204.99c-6.2-6.68-16.64-7.07-23.32-.87-6.68,6.2-7.07,16.64-.87,23.32l95.46,102.82c3.25,3.5,7.67,5.27,12.1,5.27,.17,0,.34-.02,.51-.02,.16,0,.32,.02,.49,.02,4.22,0,8.45-1.61,11.67-4.83L482.55,90.36c6.44-6.44,6.44-16.89,0-23.33-6.44-6.44-16.89-6.44-23.33,0l-228.76,228.76-84.29-90.79Z"/>
    </g>
  </g>
</svg>