<?xml version="1.0" encoding="UTF-8"?>
<svg id="Layer_2" data-name="Layer 2" xmlns="http://www.w3.org/2000/svg" viewBox="0 0 496.73 496.85">
  <defs>
    <style>
      .cls-1 {
        fill: #231f20;
      }
    </style>
  </defs>
  <g id="Layer_1-2" data-name="Layer 1">
    <g>
      <path class="cls-1" d="M154.74,88.73H480.23c9.11,0,16.5-7.39,16.5-16.5s-7.39-16.5-16.5-16.5H154.74c-9.11,0-16.5,7.39-16.5,16.5s7.39,16.5,16.5,16.5Z"/>
      <path class="cls-1" d="M480.23,232.6H154.74c-9.11,0-16.5,7.39-16.5,16.5s7.39,16.5,16.5,16.5H480.23c9.11,0,16.5-7.39,16.5-16.5s-7.39-16.5-16.5-16.5Z"/>
      <path class="cls-1" d="M480.23,409.47H154.74c-9.11,0-16.5,7.39-16.5,16.5s7.39,16.5,16.5,16.5H480.23c9.11,0,16.5-7.39,16.5-16.5s-7.39-16.5-16.5-16.5Z"/>
      <polygon class="cls-1" points="32.74 33.25 32.74 133.76 64.09 133.76 64.09 0 42.24 0 1.58 15.39 8.23 41.23 32.74 33.25"/>
      <path class="cls-1" d="M68.21,264.61c9.12-8.48,15.58-16.06,19.38-22.71s5.7-14.03,5.7-22.14c0-11.27-3.71-20.3-11.12-27.07-7.41-6.77-17.7-10.17-30.88-10.17-18.37,0-34.9,6.53-49.59,19.57l12.92,24.89c13.17-10.76,24.06-16.15,32.68-16.15,4.3,0,7.66,1.21,10.07,3.61,2.4,2.41,3.61,5.45,3.61,9.12,0,3.3-.95,6.46-2.85,9.5-1.9,3.04-5.13,6.97-9.69,11.78L0,295.01l4.94,22.42H95.38v-27.17H43.89l24.32-25.65Z"/>
      <path class="cls-1" d="M85.98,433.87c-5.13-4.75-13.52-7.95-25.18-9.6,10.64-3.8,18.55-8.36,23.75-13.68,5.19-5.32,7.79-12.09,7.79-20.33,0-9.25-3.49-16.5-10.45-21.76-6.97-5.25-16.79-7.88-29.45-7.88-16.6,0-33.32,3.8-50.16,11.4l7.22,23.56c14.31-6.46,26.6-9.69,36.86-9.69,9.24,0,13.87,3.17,13.87,9.5,0,4.31-2.88,8.2-8.65,11.69-5.77,3.49-16.31,7.5-31.64,12.06l2.66,19.57c14.69,.13,24.82,1.27,30.4,3.42,5.57,2.16,8.36,5.45,8.36,9.88,0,5.83-4.31,10.26-12.92,13.3-8.62,3.04-23.94,5.13-45.98,6.27v25.27c19.5-.64,35.81-2.44,48.93-5.42,13.11-2.97,23.43-7.57,30.97-13.77,7.53-6.2,11.31-14.12,11.31-23.75,0-8.61-2.56-15.29-7.69-20.04Z"/>
    </g>
  </g>
</svg>