<?xml version="1.0" encoding="UTF-8"?>
<svg id="Layer_2" data-name="Layer 2" xmlns="http://www.w3.org/2000/svg" viewBox="0 0 498.23 498.61">
  <defs>
    <style>
      .cls-1 {
        fill: #231f20;
      }
    </style>
  </defs>
  <g id="Layer_1-2" data-name="Layer 1">
    <g>
      <path class="cls-1" d="M121.86,0H32.81C14.72,0,0,14.72,0,32.8V121.86c0,18.09,14.72,32.8,32.81,32.8H121.86c18.09,0,32.8-14.72,32.8-32.8V32.8C154.66,14.72,139.95,0,121.86,0Zm-.2,121.66H33V33H121.66V121.66Z"/>
      <path class="cls-1" d="M293.64,0h-89.05c-18.09,0-32.8,14.72-32.8,32.8V121.86c0,18.09,14.72,32.8,32.8,32.8h89.05c18.09,0,32.8-14.72,32.8-32.8V32.8c0-18.09-14.72-32.8-32.8-32.8Zm-.2,121.66h-88.66V33h88.66V121.66Z"/>
      <path class="cls-1" d="M465.42,0h-89.05c-18.09,0-32.8,14.72-32.8,32.8V121.86c0,18.09,14.72,32.8,32.8,32.8h89.05c18.09,0,32.8-14.72,32.8-32.8V32.8c0-18.09-14.72-32.8-32.8-32.8Zm-.2,121.66h-88.66V33h88.66V121.66Z"/>
      <path class="cls-1" d="M121.86,173.79H32.81c-18.09,0-32.81,14.72-32.81,32.8v89.05c0,18.09,14.72,32.8,32.81,32.8H121.86c18.09,0,32.8-14.72,32.8-32.8v-89.05c0-18.09-14.72-32.8-32.8-32.8Zm-.2,121.66H33v-88.66H121.66v88.66Z"/>
      <path class="cls-1" d="M293.64,171.97h-89.05c-18.09,0-32.8,14.72-32.8,32.8v89.05c0,18.09,14.72,32.8,32.8,32.8h89.05c18.09,0,32.8-14.72,32.8-32.8v-89.05c0-18.09-14.72-32.8-32.8-32.8Zm-.2,121.66h-88.66v-88.66h88.66v88.66Z"/>
      <path class="cls-1" d="M465.42,171.92h-89.05c-18.09,0-32.8,14.72-32.8,32.8v89.05c0,18.09,14.72,32.8,32.8,32.8h89.05c18.09,0,32.8-14.72,32.8-32.8v-89.05c0-18.09-14.72-32.8-32.8-32.8Zm-.2,121.66h-88.66v-88.66h88.66v88.66Z"/>
      <path class="cls-1" d="M121.86,343.94H32.81c-18.09,0-32.81,14.72-32.81,32.8v89.05c0,18.09,14.72,32.81,32.81,32.81H121.86c18.09,0,32.8-14.72,32.8-32.81v-89.05c0-18.09-14.72-32.8-32.8-32.8Zm-.2,121.66H33v-88.66H121.66v88.66Z"/>
      <path class="cls-1" d="M293.64,343.94h-89.05c-18.09,0-32.8,14.72-32.8,32.8v89.05c0,18.09,14.72,32.81,32.8,32.81h89.05c18.09,0,32.8-14.72,32.8-32.81v-89.05c0-18.09-14.72-32.8-32.8-32.8Zm-.2,121.66h-88.66v-88.66h88.66v88.66Z"/>
      <path class="cls-1" d="M465.42,343.94h-89.05c-18.09,0-32.8,14.72-32.8,32.8v89.05c0,18.09,14.72,32.81,32.8,32.81h89.05c18.09,0,32.8-14.72,32.8-32.81v-89.05c0-18.09-14.72-32.8-32.8-32.8Zm-.2,121.66h-88.66v-88.66h88.66v88.66Z"/>
    </g>
  </g>
</svg>