<?xml version="1.0" encoding="UTF-8"?>
<svg id="Layer_2" data-name="Layer 2" xmlns="http://www.w3.org/2000/svg" viewBox="0 0 495.52 495.52">
  <defs>
    <style>
      .cls-1 {
        fill: #231f20;
      }
    </style>
  </defs>
  <g id="Layer_1-2" data-name="Layer 1">
    <g>
      <path class="cls-1" d="M422.95,72.57C376.16,25.77,313.94,0,247.76,0S119.36,25.77,72.57,72.57,0,181.58,0,247.76s25.77,128.4,72.57,175.19,109.01,72.57,175.19,72.57,128.4-25.77,175.19-72.57,72.57-109.01,72.57-175.19-25.77-128.4-72.57-175.19Zm-23.33,327.05c-40.56,40.56-94.49,62.9-151.86,62.9s-111.3-22.34-151.86-62.9c-40.56-40.56-62.9-94.49-62.9-151.86s22.34-111.3,62.9-151.86c40.56-40.56,94.49-62.9,151.86-62.9s111.3,22.34,151.86,62.9c40.56,40.56,62.9,94.49,62.9,151.86s-22.34,111.3-62.9,151.86Z"/>
      <path class="cls-1" d="M201.17,127.22c-9.11,0-16.5,7.39-16.5,16.5v204.29c0,9.11,7.39,16.5,16.5,16.5s16.5-7.39,16.5-16.5V143.72c0-9.11-7.39-16.5-16.5-16.5Z"/>
      <path class="cls-1" d="M300.8,127.22c-9.11,0-16.5,7.39-16.5,16.5v204.29c0,9.11,7.39,16.5,16.5,16.5s16.5-7.39,16.5-16.5V143.72c0-9.11-7.39-16.5-16.5-16.5Z"/>
    </g>
  </g>
</svg>