<?xml version="1.0" encoding="UTF-8"?>
<svg id="Layer_2" data-name="Layer 2" xmlns="http://www.w3.org/2000/svg" viewBox="0 0 495.52 411.01">
  <defs>
    <style>
      .cls-1 {
        fill: #231f20;
      }
    </style>
  </defs>
  <g id="Layer_1-2" data-name="Layer 1">
    <g>
      <path class="cls-1" d="M492.14,195.16c-9.58-12.55-45.42-55.88-104.98-87.48,.07-.12,.15-.24,.22-.37l27.36-49.37c4.42-7.97,1.54-18.01-6.43-22.43-7.97-4.42-18.01-1.54-22.43,6.43l-27.36,49.37c-.46,.82-.82,1.67-1.12,2.53-27.24-10.93-58.34-18.82-93.15-20.79,0-.09,.01-.17,.01-.26V16.5c0-9.11-7.39-16.5-16.5-16.5s-16.5,7.39-16.5,16.5v56.29c0,.06,0,.13,0,.19-35.75,1.89-67.64,10.03-95.44,21.31-.33-1.02-.75-2.02-1.29-2.98l-27.36-49.37c-4.42-7.97-14.46-10.85-22.43-6.43-7.97,4.42-10.85,14.46-6.43,22.43l27.36,49.37c.17,.3,.35,.6,.53,.89C48.1,139.26,12.95,181.21,3.45,193.49c-4.49,5.8-4.61,13.87-.3,19.8,6.35,8.74,30.22,39.53,70.68,68.78,10.81,7.82,21.96,14.89,33.36,21.19-.09,.15-.19,.29-.28,.45l-27.36,49.37c-4.42,7.97-1.54,18.01,6.43,22.43,2.54,1.4,5.28,2.07,7.98,2.07,5.8,0,11.43-3.07,14.45-8.5l27.36-49.37c.38-.69,.69-1.4,.96-2.11,4.47,1.88,8.96,3.65,13.48,5.29,26.57,9.67,54.17,15.3,82.27,16.85v54.78c0,9.11,7.39,16.5,16.5,16.5s16.5-7.39,16.5-16.5v-54.83c35.05-2.04,66.27-10.18,93.54-21.45,.21,.49,.45,.98,.72,1.46l27.36,49.37c3.01,5.44,8.64,8.5,14.45,8.5,2.71,0,5.45-.67,7.98-2.07,7.97-4.42,10.85-14.46,6.43-22.43l-27.2-49.08c59.01-32.28,94.18-76.34,103.54-89.04,4.35-5.9,4.28-13.97-.17-19.79Zm-244.38,104.95c-52.72,0-95.62-42.89-95.62-95.62s42.89-95.62,95.62-95.62,95.62,42.89,95.62,95.62-42.89,95.62-95.62,95.62ZM37.7,203.87c10.43-11.86,29.09-30.84,55.22-48.92,17.18-11.88,34.96-21.63,53.25-29.25-16.93,21.78-27.02,49.12-27.02,78.78,0,31.35,11.28,60.11,29.98,82.45-57.34-24.22-95.39-63.88-111.42-83.06Zm366.56,51.22c-18.9,13.73-38.57,24.78-58.94,33.1,19.34-22.51,31.05-51.77,31.05-83.7,0-29.32-9.87-56.38-26.46-78.04,18.15,7.71,35.79,17.53,52.82,29.47,26.15,18.32,44.74,37.49,55.11,49.43-10.06,12-28.1,31.22-53.58,49.74Z"/>
      <circle class="cls-1" cx="247.76" cy="204.49" r="48.44"/>
    </g>
  </g>
</svg>