<?xml version="1.0" encoding="UTF-8"?>
<svg id="Layer_2" data-name="Layer 2" xmlns="http://www.w3.org/2000/svg" viewBox="0 0 456.37 496.74">
  <defs>
    <style>
      .cls-1 {
        fill: #231f20;
      }
    </style>
  </defs>
  <g id="Layer_1-2" data-name="Layer 1">
    <g>
      <path class="cls-1" d="M305.75,279.01l-77.87-16.79v-82.56c0-9.15-7.42-16.57-16.57-16.57s-16.57,7.42-16.57,16.57v95.73s0,.08,0,.11v.09c0,.11,.01,.21,.02,.31,0,.44,.02,.88,.07,1.31,.02,.17,.05,.34,.07,.52,.05,.36,.09,.73,.17,1.08,.05,.25,.12,.49,.18,.73,.07,.27,.13,.55,.21,.82,.09,.29,.19,.57,.3,.85,.08,.22,.15,.43,.24,.65,.12,.3,.26,.59,.4,.87,.09,.19,.18,.38,.28,.57,.15,.28,.31,.54,.47,.81,.11,.19,.22,.39,.35,.57,.16,.24,.33,.47,.5,.7,.15,.2,.29,.41,.45,.61,.16,.2,.33,.38,.5,.57,.19,.21,.38,.43,.58,.64,.16,.16,.32,.31,.48,.46,.23,.21,.45,.43,.7,.63,.16,.13,.33,.26,.5,.39,.25,.2,.51,.4,.77,.58,.19,.13,.38,.24,.57,.36,.26,.16,.51,.33,.78,.47,.24,.13,.5,.25,.75,.37,.23,.11,.45,.23,.68,.33,.33,.14,.67,.26,1.01,.38,.17,.06,.34,.13,.51,.19,.4,.13,.82,.23,1.24,.33,.11,.03,.22,.07,.33,.09l.1,.02s.06,.01,.1,.02l90.76,19.57c1.18,.25,2.35,.38,3.51,.38,7.64,0,14.5-5.31,16.18-13.08,1.93-8.94-3.76-17.76-12.7-19.69Z"/>
      <path class="cls-1" d="M451.52,114.89l-50.51-50.51c-6.47-6.47-16.96-6.47-23.43,0-6.47,6.47-6.47,16.96,0,23.43l13.21,13.21-32.64,32.64c-34.33-33.22-79.84-54.94-130.28-58.87V33.13h19.62c9.15,0,16.57-7.42,16.57-16.57S256.64,0,247.49,0h-71.44c-9.15,0-16.57,7.42-16.57,16.57s7.42,16.57,16.57,16.57h18.69v41.65C85.94,83.26,0,174.5,0,285.44c0,116.51,94.79,211.31,211.31,211.31s211.31-94.79,211.31-211.31c0-47.59-15.82-91.56-42.47-126.92l34.08-34.08,13.87,13.87c3.24,3.23,7.47,4.85,11.71,4.85s8.48-1.62,11.71-4.85c6.47-6.47,6.47-16.96,0-23.43ZM211.31,463.61c-98.25,0-178.17-79.93-178.17-178.17S113.06,107.26,211.31,107.26s178.17,79.93,178.17,178.17-79.93,178.17-178.17,178.17Z"/>
    </g>
  </g>
</svg>